<svg width="1440" height="355" viewBox="0 0 1440 355" fill="none" xmlns="http://www.w3.org/2000/svg">
<path fill-rule="evenodd" clip-rule="evenodd" d="M-22 93.6688L19.8333 127.278C61.6667 160.887 145.333 226.947 229 202.609C312.667 177.113 396.333 60.0595 480 18.3377C563.667 -23.3842 647.333 10.2251 731 77.4437C814.667 143.503 898.333 244.331 982 260.556C1065.67 276.781 1149.33 210.722 1233 177.113C1316.67 143.503 1400.33 143.503 1442.17 143.503H1484V344H1442.17C1400.33 344 1316.67 344 1233 344C1149.33 344 1065.67 344 982 344C898.333 344 814.667 344 731 344C647.333 344 563.667 344 480 344C396.333 344 312.667 344 229 344C145.333 344 61.6667 344 19.8333 344H-22V93.6688Z" fill="#212121"/>
<path fill-rule="evenodd" clip-rule="evenodd" d="M0 189.083L40 211.359C80 233.635 160 277.418 240 261.288C320 244.389 400 166.807 480 139.154C560 111.501 640 133.777 720 178.329C800 222.113 880 288.94 960 299.694C1040 310.448 1120 266.664 1200 244.389C1280 222.113 1360 222.113 1400 222.113H1440V355H1400C1360 355 1280 355 1200 355C1120 355 1040 355 960 355C880 355 800 355 720 355C640 355 560 355 480 355C400 355 320 355 240 355C160 355 80 355 40 355H0V189.083Z" fill="#515456"/>
</svg>
