<svg width="60" height="60" viewBox="0 0 60 60" fill="none" xmlns="http://www.w3.org/2000/svg">
<circle cx="30" cy="30" r="30" fill="#212121"/>
<path d="M30 35.3333C32.9455 35.3333 35.3334 32.9455 35.3334 30C35.3334 27.0545 32.9455 24.6667 30 24.6667C27.0545 24.6667 24.6667 27.0545 24.6667 30C24.6667 32.9455 27.0545 35.3333 30 35.3333Z" fill="#F1F1F1"/>
<path d="M25 13.3333L21.95 16.6667H16.6667C14.8333 16.6667 13.3333 18.1667 13.3333 20V40C13.3333 41.8333 14.8333 43.3333 16.6667 43.3333H43.3333C45.1667 43.3333 46.6667 41.8333 46.6667 40V20C46.6667 18.1667 45.1667 16.6667 43.3333 16.6667H38.05L35 13.3333H25ZM30 38.3333C25.4 38.3333 21.6667 34.6 21.6667 30C21.6667 25.4 25.4 21.6667 30 21.6667C34.6 21.6667 38.3333 25.4 38.3333 30C38.3333 34.6 34.6 38.3333 30 38.3333Z" fill="#F1F1F1"/>
</svg>
