<svg width="40" height="40" viewBox="0 0 40 40" fill="none" xmlns="http://www.w3.org/2000/svg">
<path d="M20 25.3333C22.9455 25.3333 25.3334 22.9455 25.3334 20C25.3334 17.0545 22.9455 14.6667 20 14.6667C17.0545 14.6667 14.6667 17.0545 14.6667 20C14.6667 22.9455 17.0545 25.3333 20 25.3333Z" fill="#F1F1F1"/>
<path d="M15 3.33334L11.95 6.66668H6.66665C4.83331 6.66668 3.33331 8.16668 3.33331 10V30C3.33331 31.8333 4.83331 33.3333 6.66665 33.3333H33.3333C35.1666 33.3333 36.6666 31.8333 36.6666 30V10C36.6666 8.16668 35.1666 6.66668 33.3333 6.66668H28.05L25 3.33334H15ZM20 28.3333C15.4 28.3333 11.6666 24.6 11.6666 20C11.6666 15.4 15.4 11.6667 20 11.6667C24.6 11.6667 28.3333 15.4 28.3333 20C28.3333 24.6 24.6 28.3333 20 28.3333Z" fill="#F1F1F1"/>
</svg>
